<mxfile host="app.diagrams.net" modified="2024-01-22T13:12:02.472Z" agent="Mozilla/5.0 (Macintosh; Intel Mac OS X 10_15_7) AppleWebKit/605.1.15 (KHTML, like Gecko) Version/16.6 Safari/605.1.15" etag="vgZQYbyIylET8XlleAp1" version="22.1.21" type="github">
  <diagram name="Page-1" id="_oyN2kCdy8NKPg3RQMB2">
    <mxGraphModel dx="1346" dy="756" grid="1" gridSize="10" guides="1" tooltips="1" connect="1" arrows="1" fold="1" page="1" pageScale="1" pageWidth="850" pageHeight="1100" math="0" shadow="0">
      <root>
        <mxCell id="0" />
        <mxCell id="1" parent="0" />
      </root>
    </mxGraphModel>
  </diagram>
</mxfile>
